<svg width="60" height="51" viewBox="0 0 60 51" fill="none" xmlns="http://www.w3.org/2000/svg">
<path d="M3.12964 15.1337L5.29632 16.2171C5.7778 16.3776 7.2704 16.6022 9.38893 16.2171C13.8427 15.2541 14.5649 15.0133 13.0001 14.893C11.4352 14.7726 12.0371 14.893 10.713 14.5319C9.57308 14.221 8.70081 13.3748 8.55703 13.2222C8.55591 13.2566 7.78598 12.7413 9.02782 12.967C10.3519 13.2078 17.4538 12.0041 17.213 11.643C16.9723 11.2818 15.4075 11.2818 14.3241 11.0411C13.2408 10.8004 11.4352 9.47628 11.5556 9.47628C11.676 9.47628 20.2223 9.35591 20.2223 8.51332C20.2223 7.67072 19.139 8.39295 18.2964 7.91146C17.4538 7.42998 15.7686 5.02256 16.2501 5.2633C16.7316 5.50405 18.6575 6.94849 19.2593 6.82812C19.8612 6.70775 24.1946 6.82812 23.9538 6.22627C23.7131 5.62441 22.8705 5.38367 21.7871 4.30033C20.7038 3.21699 20.4631 2.01329 20.2223 1.65217C19.9816 1.29106 22.7501 3.57811 23.7131 3.57811C24.676 3.57811 28.1668 4.78182 27.8057 4.0596C27.4446 3.33737 25.5186 -0.634868 26.3612 0.0873572C27.2038 0.809583 30.3335 3.81885 30.815 3.57811C31.2964 3.33737 32.3798 3.69848 33.4631 2.97626C34.5465 2.25403 37.6761 1.17069 37.9168 1.17069C38.1576 1.17069 39.1205 1.17069 39.8428 1.65217C40.565 2.13366 40.9261 1.41143 43.4539 2.01329C45.9817 2.61514 47.6669 3.09663 47.9076 3.33737C48.1484 3.57811 49.3521 4.42071 49.3521 4.66145C49.3521 4.90219 50.6762 5.2633 51.5188 5.2633C52.3613 5.2633 52.241 5.50405 54.7688 5.86516C57.2966 6.22627 58.6206 6.22627 59.2225 6.22627C59.5836 6.22627 60.1855 6.1059 59.9447 6.46701C59.704 6.82812 58.6206 9.71703 57.778 10.68C56.9354 11.643 56.2132 13.0874 55.8521 13.3282C55.491 13.5689 55.6114 14.4115 54.7688 15.4948C54.0814 16.3786 53.394 16.3812 53.1641 16.4175C53.1158 16.476 53.0836 16.4937 53.0836 16.4578C53.0836 16.4356 53.1122 16.4257 53.1641 16.4175C53.2777 16.28 53.4806 15.917 53.5651 15.4948C53.6614 15.0133 53.6052 14.1708 53.5651 13.8096L53.0836 14.1708L52.0002 15.1337L51.278 15.4948L51.0373 14.7726L50.6762 13.8096L50.4354 13.3282L49.3521 14.7726H48.8706L47.9076 13.5689L47.4261 13.3282L46.8243 14.5319L46.3428 14.7726L45.5002 14.5319L45.1391 12.967L43.4539 14.7726L42.852 14.5319V13.5689V11.643L41.4076 13.8096C41.2471 14.251 40.9743 15.2059 41.1669 15.4948C41.3594 15.7837 41.7286 16.2572 41.8891 16.4578L42.6113 16.8189L43.4539 16.0967L43.9354 15.4948L44.0558 16.6985H44.4169H45.5002C45.7891 16.6985 46.1823 17.822 46.3428 18.3837L48.5095 17.0597L48.8706 19.2263L50.0743 17.4208L50.4354 19.2263C51.0774 18.7047 52.3613 17.5411 52.3613 17.0597C52.3613 16.5782 52.5218 17.9825 52.6021 18.7448L52.0002 19.7078L51.5188 20.43C51.4385 20.8714 51.278 21.8504 51.278 22.2356C51.278 22.7171 50.5558 23.9208 49.7132 24.5226C48.8706 25.1245 48.2687 25.1245 48.1484 25.1245C48.028 25.1245 48.7502 24.5226 48.8706 24.0412C48.991 23.5597 49.2317 23.0782 48.8706 23.3189C48.5095 23.5597 47.6669 24.4023 46.5835 24.7634C45.7169 25.0523 46.0619 24.7233 46.3428 24.5226C46.423 24.2819 46.5835 23.7523 46.5835 23.5597C46.5835 23.3189 46.4632 22.2356 45.9817 22.2356C45.5002 22.2356 45.6206 21.5134 42.852 21.5134C40.6372 21.5134 39.8428 22.4763 39.7224 22.9578C39.2008 23.3992 38.1576 24.7152 38.1576 26.4486C38.1576 28.1819 38.6391 29.7387 38.8798 30.3005C38.5989 30.14 38.0131 29.7708 37.9168 29.5782C37.7965 29.3375 37.0742 28.7356 36.9539 27.0504C36.8576 25.7023 35.9508 28.3344 35.5094 29.819C35.4292 31.0227 35.2928 33.5264 35.389 33.9116C35.5094 34.3931 33.5835 31.0227 33.5835 30.6616C33.5835 30.3005 32.6205 32.5875 31.7779 34.2727C31.1038 35.6208 31.4971 38.2048 31.7779 39.3283C31.4168 38.9672 30.5983 37.9079 30.2131 36.5597C29.7316 34.8745 26.8427 44.1431 28.0464 46.4302C29.2501 48.7172 26.4816 44.0227 26.3612 43.4209C26.2409 42.819 24.1946 49.8005 24.5557 50.6431C24.9168 51.4857 23.1112 48.2357 23.2316 46.9116C23.352 45.5876 23.4723 43.4209 23.7131 42.2172C23.9538 41.0135 19.9816 44.5042 19.7408 45.7079C19.5001 46.9116 19.2593 42.0968 19.7408 41.7357C20.2223 41.3746 18.2964 42.2172 16.8519 42.2172C15.4075 42.2172 14.4445 41.7357 14.8056 41.7357C15.1667 41.7357 17.3334 38.0042 16.8519 37.282C16.3704 36.5597 13.963 37.8838 13.2408 37.7635C12.5186 37.6431 15.4075 34.032 15.5278 32.9486C15.6482 31.8653 12.6389 33.6708 13.6019 32.9486C14.5649 32.2264 15.889 30.1801 15.889 29.5782C15.889 29.0967 15.0865 29.1369 14.6853 29.2171C15.0464 28.535 15.7445 27.0504 15.6482 26.569C15.5278 25.9671 13.2408 27.5319 11.5556 27.7727C9.87041 28.0134 12.7593 25.3652 12.1575 24.4023C11.5556 23.4393 9.02782 24.5226 7.82411 24.643C6.6204 24.7634 8.78708 22.4763 9.38893 20.5504C9.99079 18.6245 9.26856 21.0319 6.86114 21.7541C4.93521 22.3319 2.12655 20.1492 0.962967 18.9856L0 16.8189L0.722225 17.5411C1.32408 18.1029 2.76853 19.2263 3.7315 19.2263C4.93521 19.2263 6.50003 19.8282 7.94448 19.3467C9.38893 18.8652 9.62967 18.9856 9.75004 18.6245C9.87041 18.2634 7.22226 18.8652 6.37966 18.3837C5.53706 17.9023 4.69447 17.3004 4.33335 17.0597C3.97224 16.8189 2.8889 15.8559 2.76853 15.4948C2.67223 15.2059 2.96915 15.1337 3.12964 15.1337Z" fill="white"/>
<path d="M46.4632 6.22629C46.1021 6.14604 44.8021 6.12999 42.491 6.70777L42.9725 6.9485C43.2132 7.02875 43.7188 7.18925 43.815 7.18925H44.5373L45.5002 7.30962C45.7811 7.42999 46.3669 7.6948 46.4632 7.7911C46.5836 7.91147 46.8243 7.91147 46.9447 7.7911C47.0651 7.67073 46.9447 7.55036 46.9447 7.42999V6.70777L46.4632 6.22629Z" fill="black" stroke="black"/>
<path d="M17.5876 22.8374C17.1745 22.8374 16.8118 22.7475 16.4992 22.5677C16.1922 22.3879 15.9523 22.1357 15.7792 21.8113C15.6118 21.4829 15.5281 21.0959 15.5281 20.6502C15.5281 20.2202 15.6202 19.8449 15.8043 19.5244C15.9941 19.1999 16.2453 18.9497 16.5578 18.7738C16.8759 18.594 17.2276 18.5041 17.6127 18.5041C17.8415 18.5041 18.0424 18.5197 18.2154 18.551C18.3885 18.5784 18.542 18.6155 18.6759 18.6624C18.7429 18.6898 18.7764 18.7308 18.7764 18.7856L18.8015 19.6769C18.8015 19.7433 18.768 19.7765 18.701 19.7765C18.6396 19.7765 18.6006 19.7511 18.5838 19.7003L18.5001 19.4833C18.3829 19.1784 18.2461 18.9673 18.0899 18.8501C17.9392 18.7328 17.7578 18.6741 17.5457 18.6741C17.155 18.6741 16.8285 18.8442 16.5662 19.1843C16.3095 19.5205 16.1811 20.0091 16.1811 20.6502C16.1811 21.0881 16.2453 21.4575 16.3736 21.7585C16.5076 22.0595 16.6778 22.2862 16.8843 22.4387C17.0964 22.5912 17.3197 22.6674 17.5541 22.6674C17.8052 22.6674 18.0062 22.6127 18.1568 22.5032C18.3131 22.3937 18.4443 22.1827 18.5503 21.8699L18.6508 21.5826C18.6675 21.5239 18.7122 21.4985 18.7847 21.5064C18.8461 21.5142 18.8768 21.5474 18.8768 21.606L18.8433 22.556C18.8433 22.6107 18.8071 22.6518 18.7345 22.6791C18.6006 22.726 18.4415 22.7632 18.2573 22.7905C18.0787 22.8218 17.8555 22.8374 17.5876 22.8374Z" fill="black"/>
<path d="M21.3779 22.8374C21.11 22.8374 20.8589 22.7827 20.6245 22.6733C20.39 22.5599 20.1835 22.4055 20.0049 22.21C19.8319 22.0146 19.6952 21.7859 19.5947 21.5239C19.4998 21.2581 19.4524 20.9728 19.4524 20.6678C19.4524 20.3629 19.4998 20.0795 19.5947 19.8176C19.6952 19.5557 19.8319 19.327 20.0049 19.1315C20.1835 18.9321 20.39 18.7777 20.6245 18.6683C20.8589 18.5588 21.11 18.5041 21.3779 18.5041C21.6458 18.5041 21.8942 18.5588 22.123 18.6683C22.3574 18.7777 22.5639 18.9321 22.7425 19.1315C22.9211 19.327 23.0579 19.5557 23.1528 19.8176C23.2532 20.0795 23.3035 20.3629 23.3035 20.6678C23.3035 20.9728 23.2532 21.2581 23.1528 21.5239C23.0579 21.7859 22.9211 22.0146 22.7425 22.21C22.5639 22.4055 22.3574 22.5599 22.123 22.6733C21.8942 22.7827 21.6458 22.8374 21.3779 22.8374ZM21.3779 22.6791C21.7742 22.6791 22.0839 22.513 22.3072 22.1807C22.5304 21.8484 22.6421 21.3441 22.6421 20.6678C22.6421 19.9915 22.5304 19.4892 22.3072 19.1608C22.0839 18.8286 21.7742 18.6624 21.3779 18.6624C20.9872 18.6624 20.6775 18.8286 20.4486 19.1608C20.2254 19.4892 20.1138 19.9915 20.1138 20.6678C20.1138 21.3441 20.2254 21.8484 20.4486 22.1807C20.6775 22.513 20.9872 22.6791 21.3779 22.6791Z" fill="black"/>
<path d="M26.2758 22.726C26.2535 22.726 26.2284 22.7202 26.2004 22.7084C26.1725 22.6967 26.153 22.6713 26.1418 22.6322L24.8777 19.0377C24.8721 19.0103 24.8554 18.9986 24.8275 19.0025C24.7996 19.0025 24.7856 19.0162 24.7856 19.0436L24.6182 22.2804C24.6126 22.3898 24.6377 22.4739 24.6935 22.5325C24.7493 22.5873 24.847 22.6224 24.9865 22.6381L25.0954 22.6498C25.1679 22.6537 25.2042 22.6772 25.2042 22.7202C25.2042 22.7632 25.1623 22.7847 25.0786 22.7847H23.8814C23.7977 22.7847 23.7559 22.7632 23.7559 22.7202C23.7559 22.6772 23.7921 22.6537 23.8647 22.6498L23.9735 22.6381C24.1186 22.6224 24.2163 22.5873 24.2665 22.5325C24.3224 22.4739 24.3531 22.3898 24.3586 22.2804L24.5261 18.9497C24.5317 18.8676 24.5149 18.8129 24.4758 18.7856C24.4368 18.7582 24.3531 18.7367 24.2247 18.7211L24.0321 18.6976C23.9596 18.6859 23.9233 18.6624 23.9233 18.6272C23.9233 18.5842 23.9652 18.5627 24.0489 18.5627H25.0535C25.2265 18.5627 25.3326 18.6214 25.3716 18.7386L26.3846 21.6647C26.3958 21.692 26.4125 21.7057 26.4349 21.7057C26.4628 21.7057 26.4795 21.692 26.4851 21.6647L27.5399 18.7093C27.5734 18.6116 27.6627 18.5627 27.8078 18.5627H28.7957C28.8794 18.5627 28.9213 18.5842 28.9213 18.6272C28.9213 18.6624 28.885 18.6859 28.8125 18.6976L28.6199 18.7211C28.5027 18.7367 28.4246 18.7582 28.3855 18.7856C28.3464 18.8129 28.3297 18.8676 28.3353 18.9497L28.5027 22.3977C28.5083 22.4797 28.5278 22.5345 28.5613 22.5618C28.5948 22.5892 28.6701 22.6107 28.7874 22.6263L28.9799 22.6498C29.0525 22.6615 29.0887 22.685 29.0887 22.7202C29.0887 22.7632 29.0469 22.7847 28.9632 22.7847H27.4479C27.3641 22.7847 27.3223 22.7632 27.3223 22.7202C27.3223 22.685 27.3586 22.6615 27.4311 22.6498L27.6237 22.6263C27.7409 22.6107 27.819 22.5892 27.8581 22.5618C27.8971 22.5345 27.9139 22.4797 27.9083 22.3977L27.766 19.0436C27.766 19.0162 27.752 19.0025 27.7241 19.0025C27.7018 18.9986 27.6851 19.0084 27.6739 19.0318L26.4014 22.6322C26.3902 22.6713 26.3707 22.6967 26.3428 22.7084C26.3204 22.7202 26.2981 22.726 26.2758 22.726Z" fill="black"/>
<path d="M29.4255 22.7847C29.3418 22.7847 29.2999 22.7632 29.2999 22.7202C29.2999 22.685 29.3362 22.6615 29.4088 22.6498L29.6013 22.6263C29.7185 22.6107 29.7939 22.5892 29.8274 22.5618C29.8664 22.5345 29.886 22.4797 29.886 22.3977V18.9497C29.886 18.8676 29.8664 18.8129 29.8274 18.7856C29.7939 18.7582 29.7185 18.7367 29.6013 18.7211L29.4088 18.6976C29.3362 18.6859 29.2999 18.6624 29.2999 18.6272C29.2999 18.5842 29.3418 18.5627 29.4255 18.5627H30.9408C31.0245 18.5627 31.0664 18.5842 31.0664 18.6272C31.0664 18.6624 31.0301 18.6859 30.9576 18.6976L30.765 18.7211C30.6478 18.7367 30.5697 18.7582 30.5306 18.7856C30.4971 18.8129 30.4804 18.8676 30.4804 18.9497V22.3977C30.4804 22.4797 30.4971 22.5345 30.5306 22.5618C30.5697 22.5892 30.6478 22.6107 30.765 22.6263L30.9576 22.6498C31.0301 22.6615 31.0664 22.685 31.0664 22.7202C31.0664 22.7632 31.0245 22.7847 30.9408 22.7847H29.4255Z" fill="black"/>
<path d="M34.8172 22.8374C34.7279 22.8374 34.6525 22.7905 34.5912 22.6967L32.3224 19.2488C32.3056 19.2214 32.2833 19.2097 32.2554 19.2136C32.2331 19.2175 32.2219 19.2351 32.2219 19.2664V22.2804C32.2219 22.3898 32.247 22.4739 32.2973 22.5325C32.3531 22.5873 32.4507 22.6224 32.5903 22.6381L32.6991 22.6498C32.7717 22.6537 32.8079 22.6772 32.8079 22.7202C32.8079 22.7632 32.7661 22.7847 32.6824 22.7847H31.4852C31.4015 22.7847 31.3596 22.7632 31.3596 22.7202C31.3596 22.6772 31.3959 22.6537 31.4684 22.6498L31.5773 22.6381C31.7224 22.6224 31.8229 22.5873 31.8787 22.5325C31.9345 22.4739 31.9624 22.3898 31.9624 22.2804V18.9497C31.9624 18.8676 31.9429 18.8129 31.9038 18.7856C31.8703 18.7582 31.7894 18.7367 31.661 18.7211L31.4684 18.6976C31.3959 18.6859 31.3596 18.6624 31.3596 18.6272C31.3596 18.5842 31.4015 18.5627 31.4852 18.5627H32.381C32.5205 18.5627 32.6182 18.6057 32.674 18.6917L34.6498 21.735C34.6665 21.7585 34.686 21.7683 34.7084 21.7644C34.7363 21.7605 34.7502 21.7468 34.7502 21.7233V19.067C34.7502 18.9419 34.7195 18.8559 34.6581 18.809C34.5967 18.7582 34.5186 18.7269 34.4237 18.7152L34.273 18.6976C34.2005 18.6859 34.1642 18.6624 34.1642 18.6272C34.1642 18.5842 34.206 18.5627 34.2898 18.5627H35.4869C35.5707 18.5627 35.6125 18.5842 35.6125 18.6272C35.6125 18.6702 35.5762 18.6937 35.5037 18.6976L35.3949 18.7093C35.2497 18.725 35.1493 18.7582 35.0935 18.809C35.0377 18.8559 35.0097 18.9419 35.0097 19.067V22.6498C35.0097 22.7202 34.9902 22.769 34.9511 22.7964C34.9177 22.8238 34.873 22.8374 34.8172 22.8374Z" fill="black"/>
<path d="M38.0849 22.8374C37.6328 22.8374 37.2505 22.7475 36.938 22.5677C36.6254 22.3879 36.3882 22.1357 36.2264 21.8113C36.0645 21.4829 35.9836 21.0959 35.9836 20.6502C35.9836 20.2202 36.0784 19.8449 36.2682 19.5244C36.458 19.1999 36.7175 18.9497 37.0468 18.7738C37.3817 18.594 37.764 18.5041 38.1937 18.5041C38.4114 18.5041 38.6095 18.5197 38.7881 18.551C38.9667 18.5784 39.123 18.6155 39.257 18.6624C39.3295 18.6898 39.3658 18.7308 39.3658 18.7856L39.3909 19.6769C39.3909 19.7433 39.3574 19.7765 39.2905 19.7765C39.2291 19.7765 39.19 19.7511 39.1733 19.7003L39.1063 19.5244C38.9835 19.1999 38.844 18.9771 38.6877 18.8559C38.5314 18.7347 38.3165 18.6741 38.043 18.6741C37.6356 18.6741 37.298 18.8442 37.0301 19.1843C36.7677 19.5205 36.6366 20.0091 36.6366 20.6502C36.6366 21.3109 36.7705 21.8152 37.0384 22.1631C37.3119 22.5071 37.6607 22.6791 38.0849 22.6791C38.3137 22.6791 38.4868 22.6439 38.604 22.5736C38.7212 22.5032 38.7798 22.3722 38.7798 22.1807V20.8965C38.7798 20.8144 38.7602 20.7577 38.7212 20.7265C38.6877 20.6952 38.6123 20.6757 38.4951 20.6678L38.1686 20.6444C38.0961 20.6405 38.0598 20.617 38.0598 20.574C38.0598 20.531 38.1017 20.5095 38.1854 20.5095H39.7174C39.8011 20.5095 39.843 20.533 39.843 20.5799C39.843 20.6151 39.8123 20.6366 39.7509 20.6444L39.6253 20.6561C39.5025 20.6678 39.43 20.6913 39.4077 20.7265C39.3853 20.7617 39.3742 20.8203 39.3742 20.9024V22.4915C39.3742 22.5345 39.3574 22.5697 39.3239 22.597C39.2905 22.6205 39.2319 22.6478 39.1481 22.6791C39.0142 22.726 38.8607 22.7632 38.6877 22.7905C38.5147 22.8218 38.3137 22.8374 38.0849 22.8374Z" fill="black"/>
<path d="M25.9096 19.4553C25.8898 19.4553 25.8799 19.4506 25.8799 19.441C25.8799 19.4332 25.8885 19.428 25.9057 19.4254L25.9513 19.4201C25.979 19.4167 25.9969 19.4119 26.0048 19.4058C26.0141 19.3997 26.0187 19.3876 26.0187 19.3693V18.6031C26.0187 18.5849 26.0141 18.5727 26.0048 18.5666C25.9969 18.5606 25.979 18.5558 25.9513 18.5523L25.9057 18.5471C25.8885 18.5445 25.8799 18.5393 25.8799 18.5315C25.8799 18.5219 25.8898 18.5171 25.9096 18.5171H26.2685C26.2884 18.5171 26.2983 18.5219 26.2983 18.5315C26.2983 18.5393 26.2897 18.5445 26.2725 18.5471L26.2269 18.5523C26.1991 18.5558 26.1806 18.5606 26.1714 18.5666C26.1634 18.5727 26.1595 18.5849 26.1595 18.6031V19.3693C26.1595 19.3876 26.1634 19.3997 26.1714 19.4058C26.1806 19.4119 26.1991 19.4167 26.2269 19.4201L26.2725 19.4254C26.2897 19.428 26.2983 19.4332 26.2983 19.441C26.2983 19.4506 26.2884 19.4553 26.2685 19.4553H25.9096Z" fill="black"/>
<path d="M26.7009 19.4671C26.6744 19.4671 26.6447 19.4653 26.6116 19.4618C26.5799 19.4584 26.5495 19.454 26.5204 19.4488C26.4927 19.4436 26.4709 19.438 26.455 19.4319C26.4457 19.4284 26.4385 19.4249 26.4332 19.4214C26.4292 19.4171 26.4272 19.4102 26.4272 19.4006L26.4173 19.196C26.4173 19.1786 26.4259 19.17 26.4431 19.17C26.4576 19.17 26.4675 19.1778 26.4728 19.1934L26.4907 19.2429C26.5356 19.3672 26.6196 19.4293 26.7425 19.4293C26.8086 19.4293 26.8608 19.4149 26.8992 19.3863C26.9388 19.3567 26.9587 19.3155 26.9587 19.2625C26.9587 19.2112 26.9382 19.1634 26.8972 19.1191C26.8575 19.0748 26.7934 19.031 26.7048 18.9875C26.607 18.9415 26.5356 18.8972 26.4907 18.8546C26.4457 18.8112 26.4233 18.7651 26.4233 18.7165C26.4233 18.6522 26.457 18.601 26.5244 18.5627C26.5931 18.5236 26.6804 18.5041 26.7861 18.5041C26.8258 18.5041 26.8641 18.5071 26.9012 18.5132C26.9382 18.5193 26.9686 18.528 26.9924 18.5393C27.0003 18.5427 27.0063 18.5467 27.0102 18.551C27.0155 18.5553 27.0182 18.561 27.0182 18.5679L27.0241 18.7647C27.0241 18.7795 27.0155 18.7869 26.9983 18.7869C26.9864 18.7869 26.9778 18.7808 26.9725 18.7686L26.9587 18.736C26.9296 18.6691 26.8992 18.6205 26.8674 18.5901C26.837 18.5588 26.7928 18.5432 26.7346 18.5432C26.6777 18.5432 26.6321 18.5553 26.5978 18.5797C26.5647 18.604 26.5482 18.6383 26.5482 18.6826C26.5482 18.72 26.5667 18.7556 26.6037 18.7895C26.6407 18.8233 26.7055 18.8646 26.798 18.9133C26.8972 18.9662 26.9692 19.0175 27.0142 19.067C27.0605 19.1157 27.0836 19.1678 27.0836 19.2234C27.0836 19.272 27.0671 19.3146 27.034 19.3511C27.001 19.3876 26.9554 19.4162 26.8972 19.4371C26.8403 19.4571 26.7749 19.4671 26.7009 19.4671Z" fill="black"/>
<path d="M19.0865 18.2634C19.064 18.2634 19.0415 18.2572 19.0189 18.2449C18.9964 18.2327 18.9795 18.2061 18.9683 18.1651L18.3182 16.2618C18.3125 16.2291 18.2957 16.2147 18.2675 16.2188C18.2394 16.2188 18.2197 16.2332 18.2084 16.2618L17.4823 18.1651C17.4654 18.2061 17.4457 18.2327 17.4232 18.2449C17.4063 18.2572 17.3866 18.2634 17.3641 18.2634C17.3416 18.2634 17.3163 18.2572 17.2881 18.2449C17.2656 18.2327 17.2487 18.2061 17.2375 18.1651L15.9035 14.2725C15.8641 14.1579 15.819 14.0781 15.7684 14.0331C15.7233 13.9881 15.6445 13.9574 15.532 13.941L15.4053 13.9226C15.3265 13.9103 15.2871 13.8837 15.2871 13.8428C15.2871 13.8018 15.3293 13.7814 15.4138 13.7814H16.7731C16.8519 13.7814 16.8913 13.8039 16.8913 13.8489C16.8913 13.8857 16.8491 13.9103 16.7646 13.9226L16.6718 13.9349C16.5761 13.9471 16.5142 13.9717 16.486 14.0085C16.4635 14.0413 16.4663 14.1027 16.4945 14.1927L17.4908 17.1889C17.502 17.2176 17.5189 17.2319 17.5414 17.2319C17.5696 17.2319 17.5893 17.2176 17.6005 17.1889L17.9804 16.1881C18.0424 16.0326 18.0733 15.8893 18.0733 15.7584C18.0733 15.6274 18.0452 15.4821 17.9889 15.3224L17.6343 14.2725C17.5949 14.1579 17.5555 14.0761 17.5161 14.027C17.4823 13.9778 17.4345 13.9492 17.3725 13.941L17.2459 13.9226C17.1671 13.9103 17.1277 13.8837 17.1277 13.8428C17.1277 13.8018 17.1699 13.7814 17.2543 13.7814H18.411C18.4898 13.7814 18.5292 13.8039 18.5292 13.8489C18.5292 13.8857 18.487 13.9103 18.4026 13.9226L18.3097 13.9349C18.2366 13.943 18.1915 13.9656 18.1746 14.0024C18.1634 14.0392 18.1718 14.1027 18.2 14.1927L18.487 15.0707C18.4983 15.0994 18.5152 15.1137 18.5377 15.1137C18.5658 15.1137 18.5855 15.0994 18.5968 15.0707L18.9007 14.3217C18.9627 14.1661 18.9852 14.0638 18.9683 14.0147C18.957 13.9656 18.9261 13.939 18.8754 13.9349L18.7825 13.9226C18.6981 13.9103 18.6559 13.8857 18.6559 13.8489C18.6559 13.8039 18.6953 13.7814 18.7741 13.7814H19.5762C19.6719 13.7814 19.7197 13.8039 19.7197 13.8489C19.7197 13.8898 19.6719 13.9144 19.5762 13.9226L19.4833 13.9287C19.4101 13.9328 19.3482 13.9656 19.2976 14.027C19.2525 14.0884 19.2019 14.1886 19.1456 14.3278L18.8248 15.1321C18.7628 15.2836 18.7291 15.4268 18.7234 15.5619C18.7234 15.6929 18.7488 15.8382 18.7994 15.9978L19.1794 17.1521C19.1906 17.1807 19.2075 17.1951 19.23 17.1951C19.2582 17.1951 19.2751 17.1807 19.2807 17.1521L20.2516 14.3217C20.3304 14.0843 20.2798 13.9553 20.0997 13.9349L20.0068 13.9226C19.9224 13.9103 19.8801 13.8837 19.8801 13.8428C19.8801 13.8018 19.9195 13.7814 19.9983 13.7814H20.944C21.0397 13.7814 21.0875 13.8039 21.0875 13.8489C21.0875 13.8898 21.0397 13.9144 20.944 13.9226L20.8511 13.9287C20.7779 13.9328 20.7132 13.9656 20.6569 14.027C20.6062 14.0843 20.5584 14.1845 20.5134 14.3278L19.2047 18.1651C19.1934 18.2061 19.1766 18.2327 19.154 18.2449C19.1315 18.2572 19.109 18.2634 19.0865 18.2634Z" fill="black"/>
<path d="M21.0938 18.202C21.0093 18.202 20.9671 18.1795 20.9671 18.1344C20.9671 18.0976 21.0037 18.073 21.0769 18.0608L21.2711 18.0362C21.3893 18.0198 21.4653 17.9973 21.499 17.9687C21.5384 17.94 21.5581 17.8827 21.5581 17.7967V14.1866C21.5581 14.1006 21.5384 14.0433 21.499 14.0147C21.4653 13.986 21.3893 13.9635 21.2711 13.9471L21.0769 13.9226C21.0037 13.9103 20.9671 13.8857 20.9671 13.8489C20.9671 13.8039 21.0093 13.7814 21.0938 13.7814H22.622C22.7064 13.7814 22.7486 13.8039 22.7486 13.8489C22.7486 13.8857 22.712 13.9103 22.6388 13.9226L22.4447 13.9471C22.3265 13.9635 22.2477 13.986 22.2083 14.0147C22.1745 14.0433 22.1576 14.1006 22.1576 14.1866V17.7967C22.1576 17.8827 22.1745 17.94 22.2083 17.9687C22.2477 17.9973 22.3265 18.0198 22.4447 18.0362L22.6388 18.0608C22.712 18.073 22.7486 18.0976 22.7486 18.1344C22.7486 18.1795 22.7064 18.202 22.622 18.202H21.0938Z" fill="black"/>
<path d="M26.5313 18.2572C26.4412 18.2572 26.3653 18.2081 26.3033 18.1099L24.0153 14.4997C23.9984 14.4711 23.9759 14.4588 23.9477 14.4629C23.9252 14.467 23.9139 14.4854 23.9139 14.5181V17.674C23.9139 17.7886 23.9393 17.8766 23.9899 17.938C24.0462 17.9953 24.1447 18.0321 24.2854 18.0485L24.3952 18.0608C24.4684 18.0648 24.505 18.0894 24.505 18.1344C24.505 18.1795 24.4627 18.202 24.3783 18.202H23.171C23.0865 18.202 23.0443 18.1795 23.0443 18.1344C23.0443 18.0894 23.0809 18.0648 23.1541 18.0608L23.2638 18.0485C23.4102 18.0321 23.5115 17.9953 23.5678 17.938C23.6241 17.8766 23.6522 17.7886 23.6522 17.674V14.1866C23.6522 14.1006 23.6325 14.0433 23.5931 14.0147C23.5593 13.986 23.4777 13.9635 23.3483 13.9471L23.1541 13.9226C23.0809 13.9103 23.0443 13.8857 23.0443 13.8489C23.0443 13.8039 23.0865 13.7814 23.171 13.7814H24.0744C24.2151 13.7814 24.3136 13.8264 24.3699 13.9164L26.3624 17.103C26.3793 17.1275 26.399 17.1377 26.4215 17.1337C26.4497 17.1296 26.4638 17.1152 26.4638 17.0907V14.3094C26.4638 14.1784 26.4328 14.0884 26.3709 14.0392C26.309 13.986 26.2302 13.9533 26.1345 13.941L25.9825 13.9226C25.9093 13.9103 25.8727 13.8857 25.8727 13.8489C25.8727 13.8039 25.915 13.7814 25.9994 13.7814H27.2067C27.2912 13.7814 27.3334 13.8039 27.3334 13.8489C27.3334 13.8939 27.2968 13.9185 27.2236 13.9226L27.1139 13.9349C26.9675 13.9512 26.8662 13.986 26.8099 14.0392C26.7536 14.0884 26.7255 14.1784 26.7255 14.3094V18.0608C26.7255 18.1344 26.7058 18.1856 26.6664 18.2142C26.6326 18.2429 26.5876 18.2572 26.5313 18.2572Z" fill="black"/>
<path d="M28.4651 18.202C28.3807 18.202 28.3384 18.1795 28.3384 18.1344C28.3384 18.0894 28.375 18.0648 28.4482 18.0608L28.8281 18.0178C28.9407 18.0055 29.0167 17.985 29.0561 17.9564C29.0955 17.9236 29.1152 17.8643 29.1152 17.7783V14.0945C29.1152 14.0372 29.0983 13.9963 29.0646 13.9717C29.0308 13.9471 28.9604 13.9349 28.8535 13.9349C28.6452 13.9349 28.4398 14.0003 28.2371 14.1313C28.0345 14.2623 27.9022 14.4731 27.8403 14.7637L27.7981 14.9663C27.7868 15.0195 27.7474 15.0461 27.6799 15.0461C27.5955 15.0461 27.5589 15.0114 27.5701 14.9418L27.6461 13.8305C27.6574 13.7363 27.708 13.6893 27.7981 13.6893C27.8375 13.6893 27.8741 13.6975 27.9079 13.7138C27.9416 13.7261 27.9979 13.7404 28.0767 13.7568C28.1611 13.7732 28.2934 13.7814 28.4735 13.7814H30.3563C30.5365 13.7814 30.6659 13.7732 30.7447 13.7568C30.8292 13.7404 30.8883 13.7261 30.922 13.7138C30.9614 13.6975 30.998 13.6893 31.0318 13.6893C31.1218 13.6893 31.1725 13.7363 31.1838 13.8305L31.2598 14.9418C31.271 15.0114 31.2344 15.0461 31.15 15.0461C31.0824 15.0461 31.043 15.0195 31.0318 14.9663L30.9896 14.7637C30.9333 14.4731 30.8038 14.2623 30.6012 14.1313C30.3986 14.0003 30.1903 13.9349 29.9764 13.9349C29.8695 13.9349 29.7991 13.9471 29.7653 13.9717C29.7316 13.9963 29.7147 14.0372 29.7147 14.0945V17.7783C29.7147 17.8643 29.7344 17.9236 29.7738 17.9564C29.8188 17.985 29.8948 18.0055 30.0017 18.0178L30.3817 18.0608C30.4548 18.0648 30.4914 18.0894 30.4914 18.1344C30.4914 18.1795 30.4492 18.202 30.3648 18.202H28.4651Z" fill="black"/>
<path d="M31.6476 18.202C31.5632 18.202 31.521 18.1795 31.521 18.1344C31.521 18.0976 31.5575 18.073 31.6307 18.0608L31.8249 18.0362C31.9431 18.0198 32.0191 17.9973 32.0529 17.9687C32.0923 17.94 32.112 17.8827 32.112 17.7967V14.1866C32.112 14.1006 32.0923 14.0433 32.0529 14.0147C32.0191 13.986 31.9431 13.9635 31.8249 13.9471L31.6307 13.9226C31.5575 13.9103 31.521 13.8857 31.521 13.8489C31.521 13.8039 31.5632 13.7814 31.6476 13.7814H34.4845C34.6139 13.7814 34.6843 13.8284 34.6956 13.9226L34.7631 14.9418C34.7744 15.0114 34.7378 15.0461 34.6533 15.0461C34.5858 15.0461 34.5464 15.0195 34.5351 14.9663L34.4845 14.7392C34.4226 14.4608 34.2959 14.2582 34.1045 14.1313C33.9132 14.0003 33.6486 13.9349 33.3109 13.9349C33.0857 13.9349 32.9281 13.9594 32.8381 14.0085C32.7536 14.0536 32.7114 14.1354 32.7114 14.2541V15.7338C32.7114 15.7911 32.7508 15.8198 32.8296 15.8198H33.2518C33.4995 15.8198 33.6514 15.7236 33.7077 15.5312L33.7921 15.2242C33.8147 15.1628 33.8625 15.1362 33.9357 15.1444C33.9976 15.1526 34.0286 15.1874 34.0286 15.2488V16.6302C34.0286 16.6916 33.9976 16.7264 33.9357 16.7346C33.8625 16.7428 33.8147 16.7162 33.7921 16.6548L33.7077 16.3539C33.6683 16.2106 33.612 16.1165 33.5389 16.0715C33.4713 16.0265 33.3728 16.0039 33.2433 16.0039H32.8296C32.7508 16.0039 32.7114 16.0326 32.7114 16.0899V17.631C32.7114 17.7783 32.7621 17.8847 32.8634 17.9502C32.9704 18.0157 33.1617 18.0485 33.4375 18.0485C33.719 18.0485 33.9582 17.9973 34.1552 17.895C34.3578 17.7886 34.4985 17.5921 34.5774 17.3056L34.6787 16.9433C34.6956 16.8901 34.7378 16.8635 34.8053 16.8635C34.8841 16.8635 34.9179 16.8983 34.9066 16.9679L34.8222 18.0608C34.8109 18.1549 34.7406 18.202 34.6111 18.202H31.6476Z" fill="black"/>
<path d="M38.9857 18.2572C38.496 18.2572 38.1836 18.0239 38.0485 17.5573L37.8543 16.8758C37.7924 16.6548 37.722 16.4869 37.6432 16.3723C37.5701 16.2577 37.4659 16.18 37.3308 16.139C37.2014 16.0981 37.0213 16.0776 36.7905 16.0776C36.7117 16.0776 36.6498 16.094 36.6047 16.1267C36.5597 16.1554 36.5372 16.1922 36.5372 16.2373V17.7722C36.5372 17.8581 36.5597 17.9175 36.6047 17.9502C36.6498 17.9789 36.7511 18.0034 36.9087 18.0239L37.2211 18.0608C37.283 18.0689 37.314 18.0915 37.314 18.1283C37.314 18.1774 37.2717 18.202 37.1873 18.202H35.4734C35.3889 18.202 35.3467 18.1795 35.3467 18.1344C35.3467 18.0976 35.3833 18.073 35.4565 18.0608L35.6507 18.0362C35.7689 18.0198 35.8449 17.9973 35.8786 17.9687C35.918 17.94 35.9377 17.8827 35.9377 17.7967V14.1866C35.9377 14.1006 35.918 14.0433 35.8786 14.0147C35.8449 13.986 35.7689 13.9635 35.6507 13.9471L35.4565 13.9226C35.3833 13.9103 35.3467 13.8857 35.3467 13.8489C35.3467 13.8039 35.3889 13.7814 35.4734 13.7814H37.1873C37.5194 13.7814 37.8149 13.8284 38.0738 13.9226C38.3328 14.0167 38.5354 14.1477 38.6817 14.3155C38.8281 14.4792 38.9013 14.6696 38.9013 14.8865C38.9013 15.1444 38.7943 15.3777 38.5804 15.5864C38.3665 15.7911 38.0964 15.9364 37.7699 16.0224C37.7305 16.0306 37.708 16.0449 37.7023 16.0653C37.7023 16.0817 37.722 16.096 37.7614 16.1083C37.9416 16.1697 38.0823 16.2557 38.1836 16.3662C38.2905 16.4767 38.3722 16.6241 38.4284 16.8082L38.6142 17.4345C38.6761 17.6473 38.7493 17.7988 38.8337 17.8888C38.9181 17.9789 39.0251 18.0239 39.1546 18.0239C39.1996 18.0239 39.239 18.0198 39.2728 18.0116C39.3122 17.9994 39.36 17.9789 39.4163 17.9502C39.4613 17.9298 39.5035 17.9257 39.5429 17.938C39.5823 17.9461 39.602 17.9666 39.602 17.9994C39.602 18.0689 39.5401 18.1303 39.4163 18.1835C39.2925 18.2327 39.1489 18.2572 38.9857 18.2572ZM37.1029 15.9241C37.4856 15.9241 37.7755 15.832 37.9725 15.6478C38.1695 15.4596 38.268 15.2099 38.268 14.8988C38.268 14.5959 38.1526 14.3605 37.9219 14.1927C37.6967 14.0208 37.3843 13.9349 36.9847 13.9349C36.6864 13.9349 36.5372 14.0167 36.5372 14.1804V15.5864C36.5372 15.8116 36.7258 15.9241 37.1029 15.9241Z" fill="black"/>
</svg>
