<svg width="48" height="41" viewBox="0 0 48 41" fill="none" xmlns="http://www.w3.org/2000/svg">
<path d="M2.50372 12.107L4.23706 12.9736C4.62224 13.102 5.81632 13.2818 7.51114 12.9736C11.0741 12.2033 11.6519 12.0107 10.4 11.9144C9.14819 11.8181 9.62967 11.9144 8.57041 11.6255C7.65847 11.3768 6.96064 10.6998 6.84563 10.5778C6.84472 10.6053 6.22878 10.193 7.22225 10.3736C8.28152 10.5662 13.963 9.60326 13.7704 9.31437C13.5778 9.02548 12.326 9.02548 11.4593 8.83288C10.5926 8.64029 9.14819 7.58103 9.24449 7.58103C9.34078 7.58103 16.1779 7.48473 16.1779 6.81065C16.1779 6.13658 15.3112 6.71436 14.6371 6.32917C13.963 5.94398 12.6149 4.01805 13.0001 4.21064C13.3852 4.40324 14.926 5.55879 15.4075 5.4625C15.889 5.3662 19.3556 5.4625 19.163 4.98101C18.9705 4.49953 18.2964 4.30694 17.4297 3.44027C16.563 2.5736 16.3704 1.61063 16.1779 1.32174C15.9853 1.03285 18.2001 2.86249 18.9705 2.86249C19.7408 2.86249 22.5334 3.82546 22.2445 3.24768C21.9557 2.6699 20.4149 -0.507895 21.089 0.0698857C21.7631 0.647666 24.2668 3.05508 24.652 2.86249C25.0371 2.66989 25.9038 2.95879 26.7705 2.381C27.6372 1.80322 30.1409 0.936554 30.3335 0.936554C30.5261 0.936554 31.2964 0.936549 31.8742 1.32174C32.452 1.70693 32.7409 1.12915 34.7631 1.61063C36.7854 2.09211 38.1335 2.4773 38.3261 2.66989C38.5187 2.86249 39.4817 3.53657 39.4817 3.72916C39.4817 3.92175 40.5409 4.21064 41.215 4.21064C41.8891 4.21064 41.7928 4.40324 43.815 4.69213C45.8372 4.98101 46.8965 4.98101 47.378 4.98101C47.6669 4.98101 48.1484 4.88472 47.9558 5.17361C47.7632 5.4625 46.8965 7.77362 46.2224 8.54399C45.5484 9.31437 44.9706 10.4699 44.6817 10.6625C44.3928 10.8551 44.4891 11.5292 43.815 12.3959C43.2651 13.1029 42.7152 13.105 42.5313 13.134C42.4926 13.1808 42.4669 13.195 42.4669 13.1662C42.4669 13.1485 42.4897 13.1406 42.5313 13.134C42.6222 13.024 42.7845 12.7336 42.852 12.3959C42.9291 12.0107 42.8841 11.3366 42.852 11.0477L42.4669 11.3366L41.6002 12.107L41.0224 12.3959L40.8298 11.8181L40.5409 11.0477L40.3483 10.6625L39.4817 11.8181H39.0965L38.3261 10.8551L37.9409 10.6625L37.4594 11.6255L37.0742 11.8181L36.4002 11.6255L36.1113 10.3736L34.7631 11.8181L34.2816 11.6255V10.8551V9.31437L33.1261 11.0477C32.9977 11.4008 32.7794 12.1648 32.9335 12.3959C33.0876 12.627 33.3829 13.0057 33.5113 13.1662L34.089 13.4551L34.7631 12.8773L35.1483 12.3959L35.2446 13.3588H35.5335H36.4002C36.6313 13.3588 36.9458 14.2576 37.0742 14.707L38.8076 13.6477L39.0965 15.3811L40.0594 13.9366L40.3483 15.3811C40.8619 14.9638 41.8891 14.0329 41.8891 13.6477C41.8891 13.2625 42.0175 14.386 42.0817 14.9959L41.6002 15.7662L41.215 16.344C41.1508 16.6971 41.0224 17.4803 41.0224 17.7885C41.0224 18.1737 40.4446 19.1366 39.7705 19.6181C39.0965 20.0996 38.615 20.0996 38.5187 20.0996C38.4224 20.0996 39.0002 19.6181 39.0965 19.2329C39.1928 18.8477 39.3854 18.4626 39.0965 18.6552C38.8076 18.8477 38.1335 19.5218 37.2668 19.8107C36.5735 20.0418 36.8495 19.7786 37.0742 19.6181C37.1384 19.4255 37.2668 19.0018 37.2668 18.8477C37.2668 18.6552 37.1705 17.7885 36.7854 17.7885C36.4002 17.7885 36.4965 17.2107 34.2816 17.2107C32.5098 17.2107 31.8742 17.9811 31.7779 18.3663C31.3606 18.7193 30.5261 19.7722 30.5261 21.1589C30.5261 22.5455 30.9112 23.791 31.1038 24.2404C30.8792 24.112 30.4105 23.8167 30.3335 23.6626C30.2372 23.47 29.6594 22.9885 29.5631 21.6404C29.4861 20.5618 28.7606 22.6675 28.4075 23.8552C28.3433 24.8181 28.2342 26.8211 28.3112 27.1293C28.4075 27.5145 26.8668 24.8181 26.8668 24.5293C26.8668 24.2404 26.0964 26.07 25.4223 27.4182C24.8831 28.4967 25.1976 30.5638 25.4223 31.4626C25.1334 31.1737 24.4786 30.3263 24.1705 29.2478C23.7853 27.8996 21.4742 35.3145 22.4371 37.1441C23.4001 38.9738 21.1853 35.2182 21.089 34.7367C20.9927 34.2552 19.3556 39.8404 19.6445 40.5145C19.9334 41.1886 18.489 38.5886 18.5853 37.5293C18.6816 36.47 18.7779 34.7367 18.9705 33.7737C19.163 32.8108 15.9853 35.6034 15.7927 36.5663C15.6001 37.5293 15.4075 33.6774 15.7927 33.3885C16.1779 33.0997 14.6371 33.7737 13.4815 33.7737C12.326 33.7737 11.5556 33.3885 11.8445 33.3885C12.1334 33.3885 13.8667 30.4034 13.4815 29.8256C13.0964 29.2478 11.1704 30.3071 10.5926 30.2108C10.0149 30.1145 12.326 27.2256 12.4223 26.3589C12.5186 25.4922 10.1112 26.9367 10.8815 26.3589C11.6519 25.7811 12.7112 24.1441 12.7112 23.6626C12.7112 23.2774 12.0692 23.3095 11.7482 23.3737C12.0371 22.828 12.5956 21.6404 12.5186 21.2552C12.4223 20.7737 10.5926 22.0255 9.24449 22.2181C7.89633 22.4107 10.2075 20.2922 9.72597 19.5218C9.24449 18.7514 7.22225 19.6181 6.25929 19.7144C5.29632 19.8107 7.02966 17.9811 7.51114 16.4403C7.99263 14.8996 7.41485 16.8255 5.48891 17.4033C3.94817 17.8655 1.70124 16.1193 0.770374 15.1885L0 13.4551L0.57778 14.0329C1.05926 14.4823 2.21482 15.3811 2.9852 15.3811C3.94817 15.3811 5.20002 15.8625 6.35558 15.4774C7.51114 15.0922 7.70374 15.1885 7.80003 14.8996C7.89633 14.6107 5.7778 15.0922 5.10373 14.707C4.42965 14.3218 3.75557 13.8403 3.46668 13.6477C3.17779 13.4551 2.31112 12.6848 2.21482 12.3959C2.13779 12.1648 2.37532 12.107 2.50372 12.107Z" fill="black"/>
<path d="M37.1705 4.98102C36.8816 4.91683 35.8416 4.90399 33.9927 5.36621L34.3779 5.5588C34.5705 5.623 34.9749 5.75139 35.0519 5.75139H35.6297L36.4001 5.84769C36.6248 5.94398 37.0934 6.15584 37.1705 6.23287C37.2668 6.32917 37.4594 6.32917 37.5557 6.23287C37.652 6.13658 37.5557 6.04028 37.5557 5.94398V5.36621L37.1705 4.98102Z" fill="white" stroke="white"/>
</svg>
