<svg width="141" height="27" viewBox="0 0 141 27" fill="none" xmlns="http://www.w3.org/2000/svg">
<path d="M22.0323 27C21.9017 27 21.7711 26.9638 21.6406 26.8913C21.51 26.8188 21.4121 26.6617 21.3468 26.4201L17.5769 15.1852C17.5442 14.9919 17.4463 14.9074 17.2831 14.9315C17.1199 14.9315 17.0056 15.0161 16.9404 15.1852L12.7298 26.4201C12.6318 26.6617 12.5176 26.8188 12.387 26.8913C12.2891 26.9638 12.1749 27 12.0443 27C11.9137 27 11.7669 26.9638 11.6037 26.8913C11.4731 26.8188 11.3752 26.6617 11.3099 26.4201L3.57412 3.44295C3.34564 2.76644 3.08452 2.2953 2.79075 2.02953C2.52963 1.76376 2.07267 1.58255 1.41986 1.48591L0.685448 1.37718C0.228483 1.3047 0 1.14765 0 0.906039C0 0.664429 0.244803 0.543624 0.734409 0.543624H8.61706C9.07403 0.543624 9.30251 0.676509 9.30251 0.942281C9.30251 1.15973 9.05771 1.3047 8.5681 1.37718L8.02954 1.44966C7.47465 1.52215 7.11561 1.66711 6.9524 1.88456C6.82184 2.07785 6.83816 2.44027 7.00137 2.97181L12.7787 20.6577C12.844 20.8268 12.9419 20.9114 13.0725 20.9114C13.2357 20.9114 13.3499 20.8268 13.4152 20.6577L15.6184 14.7503C15.9775 13.8322 16.157 12.9866 16.157 12.2134C16.157 11.4403 15.9938 10.5826 15.6674 9.64027L13.611 3.44295C13.3826 2.76644 13.1541 2.28322 12.9256 1.99329C12.7298 1.70336 12.4523 1.53423 12.0933 1.48591L11.3589 1.37718C10.9019 1.3047 10.6734 1.14765 10.6734 0.906039C10.6734 0.664429 10.9182 0.543624 11.4078 0.543624H18.1154C18.5724 0.543624 18.8009 0.676509 18.8009 0.942281C18.8009 1.15973 18.5561 1.3047 18.0665 1.37718L17.5279 1.44966C17.1036 1.49799 16.8424 1.63087 16.7445 1.84832C16.6792 2.06577 16.7282 2.44027 16.8914 2.97181L18.5561 8.15436C18.6213 8.32349 18.7193 8.40805 18.8498 8.40805C19.013 8.40805 19.1273 8.32349 19.1926 8.15436L20.9551 3.73289C21.3142 2.81476 21.4447 2.21074 21.3468 1.9208C21.2815 1.63087 21.102 1.47383 20.8083 1.44966L20.2697 1.37718C19.7801 1.3047 19.5353 1.15973 19.5353 0.942281C19.5353 0.676509 19.7638 0.543624 20.2207 0.543624H24.872C25.4269 0.543624 25.7043 0.676509 25.7043 0.942281C25.7043 1.18389 25.4269 1.32886 24.872 1.37718L24.3334 1.41342C23.9091 1.43758 23.55 1.63087 23.2563 1.99329C22.9952 2.3557 22.7014 2.94765 22.375 3.76913L20.5145 8.51678C20.1554 9.41074 19.9596 10.2564 19.927 11.0537C19.927 11.8268 20.0738 12.6846 20.3676 13.6268L22.5708 20.4403C22.6361 20.6094 22.734 20.694 22.8646 20.694C23.0278 20.694 23.1257 20.6094 23.1584 20.4403L28.7888 3.73289C29.2458 2.33154 28.952 1.57047 27.9075 1.44966L27.369 1.37718C26.8794 1.3047 26.6346 1.14765 26.6346 0.906039C26.6346 0.664429 26.863 0.543624 27.32 0.543624H32.8036C33.3585 0.543624 33.6359 0.676509 33.6359 0.942281C33.6359 1.18389 33.3585 1.32886 32.8036 1.37718L32.265 1.41342C31.8407 1.43758 31.4653 1.63087 31.1389 1.99329C30.8452 2.33154 30.5677 2.92349 30.3066 3.76913L22.7177 26.4201C22.6524 26.6617 22.5545 26.8188 22.424 26.8913C22.2934 26.9638 22.1628 27 22.0323 27Z" fill="white"/>
<path d="M33.6723 26.6376C33.1827 26.6376 32.9379 26.5047 32.9379 26.2389C32.9379 26.0215 33.15 25.8765 33.5743 25.804L34.7004 25.6591C35.3859 25.5624 35.8265 25.4295 36.0224 25.2604C36.2509 25.0913 36.3651 24.753 36.3651 24.2456V2.93557C36.3651 2.42819 36.2509 2.08993 36.0224 1.9208C35.8265 1.75168 35.3859 1.61879 34.7004 1.52215L33.5743 1.37718C33.15 1.3047 32.9379 1.15973 32.9379 0.942281C32.9379 0.676509 33.1827 0.543624 33.6723 0.543624H42.5341C43.0237 0.543624 43.2685 0.676509 43.2685 0.942281C43.2685 1.15973 43.0564 1.3047 42.6321 1.37718L41.506 1.52215C40.8205 1.61879 40.3635 1.75168 40.1351 1.9208C39.9392 2.08993 39.8413 2.42819 39.8413 2.93557V24.2456C39.8413 24.753 39.9392 25.0913 40.1351 25.2604C40.3635 25.4295 40.8205 25.5624 41.506 25.6591L42.6321 25.804C43.0564 25.8765 43.2685 26.0215 43.2685 26.2389C43.2685 26.5047 43.0237 26.6376 42.5341 26.6376H33.6723Z" fill="white"/>
<path d="M65.204 26.9638C64.6818 26.9638 64.2411 26.6738 63.8821 26.094L50.6138 4.78389C50.5159 4.61476 50.3853 4.54228 50.2221 4.56644C50.0915 4.5906 50.0262 4.69933 50.0262 4.89262V23.5208C50.0262 24.1973 50.1731 24.7168 50.4669 25.0792C50.7933 25.4174 51.3645 25.6349 52.1805 25.7315L52.817 25.804C53.2413 25.8282 53.4535 25.9732 53.4535 26.2389C53.4535 26.5047 53.2087 26.6376 52.7191 26.6376H45.7177C45.2281 26.6376 44.9833 26.5047 44.9833 26.2389C44.9833 25.9732 45.1955 25.8282 45.6198 25.804L46.2563 25.7315C47.1049 25.6349 47.6925 25.4174 48.0189 25.0792C48.3453 24.7168 48.5085 24.1973 48.5085 23.5208V2.93557C48.5085 2.42819 48.3942 2.08993 48.1657 1.9208C47.9699 1.75168 47.4966 1.61879 46.7459 1.52215L45.6198 1.37718C45.1955 1.3047 44.9833 1.15973 44.9833 0.942281C44.9833 0.676509 45.2281 0.543624 45.7177 0.543624H50.9565C51.7725 0.543624 52.3437 0.809396 52.6701 1.34094L64.2248 20.1503C64.3227 20.2953 64.437 20.3557 64.5676 20.3315C64.7308 20.3074 64.8123 20.2228 64.8123 20.0779V3.6604C64.8123 2.88725 64.6328 2.3557 64.2738 2.06577C63.9147 1.75168 63.4578 1.55839 62.9029 1.48591L62.0216 1.37718C61.5973 1.3047 61.3851 1.15973 61.3851 0.942281C61.3851 0.676509 61.6299 0.543624 62.1195 0.543624H69.1209C69.6105 0.543624 69.8553 0.676509 69.8553 0.942281C69.8553 1.20805 69.6431 1.35302 69.2188 1.37718L68.5823 1.44966C67.7337 1.54631 67.1461 1.75168 66.8197 2.06577C66.4933 2.3557 66.3301 2.88725 66.3301 3.6604V25.804C66.3301 26.2389 66.2159 26.5409 65.9874 26.7101C65.7916 26.8792 65.5304 26.9638 65.204 26.9638Z" fill="white"/>
<path d="M76.4179 26.6376C75.9283 26.6376 75.6835 26.5047 75.6835 26.2389C75.6835 25.9732 75.8957 25.8282 76.32 25.804L78.5232 25.5503C79.176 25.4779 79.6167 25.357 79.8452 25.1879C80.0736 24.9946 80.1879 24.6443 80.1879 24.1369V2.39195C80.1879 2.05369 80.09 1.81208 79.8941 1.66711C79.6983 1.52215 79.2903 1.44966 78.6701 1.44966C77.4624 1.44966 76.271 1.83624 75.096 2.60939C73.9209 3.38255 73.1539 4.62684 72.7948 6.34228L72.55 7.53825C72.4848 7.85235 72.2563 8.0094 71.8646 8.0094C71.375 8.0094 71.1628 7.80403 71.2281 7.39329L71.6687 0.833557C71.734 0.277852 72.0278 0 72.55 0C72.7785 0 72.9907 0.0483222 73.1865 0.144967C73.3824 0.217449 73.7088 0.302012 74.1657 0.398657C74.6553 0.495301 75.4224 0.543624 76.4669 0.543624H87.3851C88.4296 0.543624 89.1803 0.495301 89.6373 0.398657C90.1269 0.302012 90.4696 0.217449 90.6655 0.144967C90.8939 0.0483222 91.1061 0 91.3019 0C91.8242 0 92.118 0.277852 92.1832 0.833557L92.6239 7.39329C92.6892 7.80403 92.477 8.0094 91.9874 8.0094C91.5957 8.0094 91.3672 7.85235 91.3019 7.53825L91.0571 6.34228C90.7307 4.62684 89.98 3.38255 88.8049 2.60939C87.6299 1.83624 86.4222 1.44966 85.1819 1.44966C84.5617 1.44966 84.1537 1.52215 83.9579 1.66711C83.762 1.81208 83.6641 2.05369 83.6641 2.39195V24.1369C83.6641 24.6443 83.7783 24.9946 84.0068 25.1879C84.2679 25.357 84.7086 25.4779 85.3288 25.5503L87.532 25.804C87.9563 25.8282 88.1685 25.9732 88.1685 26.2389C88.1685 26.5047 87.9237 26.6376 87.4341 26.6376H76.4179Z" fill="white"/>
<path d="M94.873 26.6376C94.3834 26.6376 94.1386 26.5047 94.1386 26.2389C94.1386 26.0215 94.3508 25.8765 94.7751 25.804L95.9012 25.6591C96.5866 25.5624 97.0273 25.4295 97.2231 25.2604C97.4516 25.0913 97.5658 24.753 97.5658 24.2456V2.93557C97.5658 2.42819 97.4516 2.08993 97.2231 1.9208C97.0273 1.75168 96.5866 1.61879 95.9012 1.52215L94.7751 1.37718C94.3508 1.3047 94.1386 1.15973 94.1386 0.942281C94.1386 0.676509 94.3834 0.543624 94.873 0.543624H111.324C112.075 0.543624 112.483 0.821476 112.548 1.37718L112.939 7.39329C113.005 7.80403 112.793 8.0094 112.303 8.0094C111.911 8.0094 111.683 7.85235 111.618 7.53825L111.324 6.19732C110.965 4.55436 110.23 3.35839 109.121 2.60939C108.011 1.83624 106.477 1.44966 104.518 1.44966C103.213 1.44966 102.299 1.59463 101.776 1.88456C101.287 2.15033 101.042 2.63356 101.042 3.33423V12.0685C101.042 12.4067 101.271 12.5758 101.727 12.5758H104.176C105.612 12.5758 106.493 12.0081 106.819 10.8725L107.309 9.0604C107.44 8.69799 107.717 8.54094 108.141 8.58926C108.5 8.63758 108.68 8.84295 108.68 9.20537V17.3597C108.68 17.7221 108.5 17.9275 108.141 17.9758C107.717 18.0242 107.44 17.8671 107.309 17.5047L106.819 15.7289C106.591 14.8832 106.265 14.3275 105.84 14.0617C105.448 13.796 104.877 13.6631 104.127 13.6631H101.727C101.271 13.6631 101.042 13.8322 101.042 14.1705V23.2671C101.042 24.1369 101.336 24.7651 101.923 25.1517C102.543 25.5383 103.653 25.7315 105.253 25.7315C106.885 25.7315 108.272 25.4295 109.414 24.8255C110.589 24.1973 111.405 23.0376 111.862 21.3463L112.45 19.2081C112.548 18.894 112.793 18.7369 113.184 18.7369C113.641 18.7369 113.837 18.9423 113.772 19.353L113.282 25.804C113.217 26.3597 112.809 26.6376 112.058 26.6376H94.873Z" fill="white"/>
<path d="M137.426 26.9638C134.586 26.9638 132.775 25.5866 131.991 22.8322L130.865 18.8094C130.506 17.5047 130.098 16.5141 129.641 15.8376C129.217 15.1611 128.613 14.702 127.83 14.4604C127.079 14.2188 126.034 14.098 124.696 14.098C124.239 14.098 123.88 14.1946 123.619 14.3879C123.358 14.557 123.227 14.7745 123.227 15.0403V24.1007C123.227 24.6081 123.358 24.9584 123.619 25.1517C123.88 25.3208 124.468 25.4658 125.382 25.5866L127.193 25.804C127.552 25.8523 127.732 25.9852 127.732 26.2027C127.732 26.4926 127.487 26.6376 126.997 26.6376H117.058C116.569 26.6376 116.324 26.5047 116.324 26.2389C116.324 26.0215 116.536 25.8765 116.96 25.804L118.086 25.6591C118.772 25.5624 119.213 25.4295 119.408 25.2604C119.637 25.0913 119.751 24.753 119.751 24.2456V2.93557C119.751 2.42819 119.637 2.08993 119.408 1.9208C119.213 1.75168 118.772 1.61879 118.086 1.52215L116.96 1.37718C116.536 1.3047 116.324 1.15973 116.324 0.942281C116.324 0.676509 116.569 0.543624 117.058 0.543624H126.997C128.923 0.543624 130.637 0.821476 132.138 1.37718C133.64 1.93289 134.815 2.70604 135.663 3.69664C136.512 4.66309 136.936 5.78658 136.936 7.06711C136.936 8.58926 136.316 9.96644 135.076 11.1987C133.835 12.4067 132.269 13.2644 130.376 13.7718C130.147 13.8201 130.017 13.9047 129.984 14.0255C129.984 14.1221 130.098 14.2067 130.327 14.2792C131.371 14.6416 132.187 15.149 132.775 15.8013C133.395 16.4537 133.868 17.3235 134.194 18.4107L135.272 22.1074C135.631 23.3638 136.055 24.2577 136.545 24.7893C137.034 25.3208 137.654 25.5866 138.405 25.5866C138.666 25.5866 138.895 25.5624 139.091 25.5141C139.319 25.4416 139.596 25.3208 139.923 25.1517C140.184 25.0309 140.429 25.0067 140.657 25.0792C140.886 25.1275 141 25.2483 141 25.4416C141 25.8523 140.641 26.2148 139.923 26.5289C139.205 26.8188 138.372 26.9638 137.426 26.9638ZM126.508 13.1919C128.727 13.1919 130.408 12.6483 131.551 11.5611C132.693 10.4497 133.264 8.97584 133.264 7.1396C133.264 5.35168 132.595 3.96241 131.257 2.97181C129.951 1.95705 128.14 1.44966 125.822 1.44966C124.092 1.44966 123.227 1.93288 123.227 2.89933V11.1987C123.227 12.5275 124.321 13.1919 126.508 13.1919Z" fill="white"/>
</svg>
